<svg width="211" height="176" viewBox="0 0 211 176" fill="none" xmlns="http://www.w3.org/2000/svg" xmlns:xlink="http://www.w3.org/1999/xlink">
<circle cx="105" cy="101" r="74.5" fill="url(#pattern0)"/>
<circle cx="105" cy="101" r="74.5" fill="#F9DB6D" fill-opacity="0.2"/>
<circle cx="105" cy="101" r="74.5" stroke="black"/>
<path d="M18.5174 113.338L18.6411 115.866L5.34058 111.903L5.19753 108.979L18.0473 103.73L18.171 106.258L7.94801 110.259L7.95301 110.361L18.5174 113.338ZM13.3866 113.506L13.0493 106.611L14.9518 106.518L15.2892 113.413L13.3866 113.506Z" fill="black"/>
<path d="M9.46559 90.5063L11.2416 90.7282L10.5421 96.3288L8.76608 96.107L9.46559 90.5063ZM6.60464 94.4328L6.89142 92.1367L16.0377 93.279C16.3464 93.3176 16.589 93.3006 16.7655 93.2282C16.9383 93.151 17.0641 93.0379 17.1429 92.8888C17.2216 92.7398 17.2729 92.5701 17.2966 92.3798C17.3146 92.236 17.3204 92.1036 17.314 91.9826C17.3082 91.8573 17.3008 91.7619 17.2918 91.6964L19.1351 91.5337C19.1621 91.6616 19.1867 91.8429 19.2089 92.0775C19.2317 92.308 19.2269 92.5865 19.1947 92.9132C19.1398 93.4904 18.9884 93.9976 18.7406 94.4347C18.4885 94.8713 18.1426 95.1996 17.7029 95.4195C17.2636 95.6352 16.7399 95.7029 16.1315 95.6226L6.60464 94.4328Z" fill="black"/>
<path d="M21.8114 81.0116C21.5387 81.9574 21.1067 82.7177 20.5154 83.2923C19.9211 83.8616 19.2084 84.226 18.3775 84.3857C17.5424 84.5441 16.6314 84.4811 15.6446 84.1966C14.6742 83.9169 13.8756 83.4872 13.2489 82.9074C12.6193 82.3223 12.1959 81.6371 11.9788 80.8516C11.7576 80.065 11.7769 79.2212 12.0365 78.3204C12.2041 77.739 12.4565 77.2174 12.7935 76.7558C13.1277 76.2889 13.5465 75.9129 14.05 75.6279C14.5546 75.3387 15.141 75.1662 15.809 75.1104C16.4729 75.0534 17.2184 75.1442 18.0455 75.3826L18.7273 75.5791L16.4984 83.3118L14.9997 82.8799L16.6143 77.2784C16.1873 77.1597 15.782 77.1427 15.3984 77.2272C15.0107 77.3106 14.674 77.4863 14.3883 77.7543C14.1038 78.0182 13.9002 78.3631 13.7774 78.789C13.6464 79.2435 13.6419 79.6746 13.7639 80.0822C13.8818 80.4888 14.0911 80.8396 14.3918 81.1347C14.6897 81.4246 15.0489 81.6323 15.4695 81.758L16.7777 82.1351C17.3264 82.2932 17.8262 82.3286 18.2771 82.2413C18.7239 82.1528 19.1037 81.9585 19.4164 81.6583C19.725 81.357 19.9489 80.9648 20.0882 80.4816C20.1814 80.1581 20.2208 79.8524 20.2062 79.5643C20.1876 79.2751 20.1159 79.0084 19.9912 78.764C19.8665 78.5196 19.6853 78.3099 19.4474 78.1349L20.2792 76.1262C20.7901 76.4154 21.1972 76.8033 21.5005 77.2898C21.8008 77.7711 21.9815 78.3287 22.0427 78.9628C22.0997 79.5957 22.0226 80.2786 21.8114 81.0116Z" fill="black"/>
<path d="M25.3888 70.3788L16.5167 66.1738L17.4776 64.1464L18.9563 64.8472L19.0001 64.7548C18.5646 64.3503 18.3014 63.886 18.2103 63.3618C18.1171 62.8319 18.191 62.3129 18.432 61.8046C18.4867 61.689 18.5536 61.5628 18.6327 61.4258C18.7098 61.2831 18.7807 61.1682 18.8456 61.0811L20.7691 61.9927C20.6963 62.0667 20.6027 62.1944 20.4883 62.376C20.372 62.5519 20.2718 62.7285 20.1878 62.9056C20.0071 63.2868 19.9275 63.6688 19.9489 64.0515C19.9683 64.4285 20.0813 64.7721 20.288 65.0822C20.4946 65.3924 20.7867 65.6369 21.164 65.8158L26.3799 68.2879L25.3888 70.3788Z" fill="black"/>
<path d="M31.2478 59.2037L23.0775 53.759L24.3217 51.892L25.6834 52.7994L25.7401 52.7143C25.3678 52.2511 25.1744 51.7536 25.1602 51.2217C25.1447 50.6839 25.2929 50.181 25.6049 49.7129C25.6758 49.6066 25.7602 49.4913 25.8583 49.3672C25.9552 49.2372 26.0421 49.1337 26.1189 49.0569L27.8901 50.2373C27.8074 50.2999 27.6963 50.4128 27.5569 50.5759C27.4163 50.7332 27.2916 50.8933 27.1829 51.0565C26.949 51.4075 26.8149 51.7739 26.7807 52.1557C26.7453 52.5315 26.8074 52.8879 26.967 53.2247C27.1267 53.5615 27.3802 53.8457 27.7277 54.0773L32.531 57.2781L31.2478 59.2037Z" fill="black"/>
<path d="M38.7168 48.9841L31.3114 42.5376L32.8307 40.7924L40.2361 47.2388L38.7168 48.9841ZM31.0242 40.7453C30.7836 41.0217 30.4849 41.1798 30.1283 41.2196C29.7684 41.2566 29.4582 41.1618 29.1979 40.9351C28.9343 40.7057 28.7977 40.4116 28.7879 40.0528C28.775 39.6913 28.8888 39.3723 29.1295 39.0959C29.3729 38.8162 29.6731 38.6595 30.0302 38.6258C30.3869 38.586 30.697 38.6808 30.9606 38.9102C31.2209 39.1368 31.3576 39.4309 31.3705 39.7925C31.3831 40.148 31.2676 40.4656 31.0242 40.7453Z" fill="black"/>
<path d="M45.158 41.9999L44.2004 40.8843L43.9079 32.7706L43.8537 32.7076L40.1384 35.8966L38.8894 34.4415L44.7535 29.4082L45.7818 30.6062L46.1879 38.4792L46.242 38.5423L50.0253 35.295L51.2743 36.7501L45.158 41.9999Z" fill="black"/>
<path d="M59.9726 31.0177C59.4359 31.3325 58.8965 31.5205 58.3544 31.5817C57.8137 31.637 57.3074 31.5487 56.8353 31.3168C56.367 31.0827 55.97 30.6882 55.6444 30.1332C55.364 29.6554 55.2204 29.2085 55.2136 28.7926C55.2067 28.3766 55.3008 27.9855 55.4959 27.619C55.691 27.2526 55.9516 26.9095 56.2778 26.5896C56.6055 26.264 56.9622 25.9583 57.348 25.6727C57.814 25.3301 58.1895 25.0481 58.4745 24.8265C58.7574 24.6013 58.9428 24.4036 59.0307 24.2334C59.1201 24.0574 59.1088 23.8739 58.9966 23.6827L58.9772 23.6497C58.7336 23.2343 58.4218 22.985 58.0418 22.9016C57.6618 22.8182 57.2403 22.9123 56.7772 23.184C56.2884 23.4708 55.9631 23.8049 55.8015 24.1863C55.6436 24.5655 55.6002 24.9294 55.6713 25.278L53.6526 26.1067C53.4977 25.5059 53.488 24.9335 53.6234 24.3896C53.7567 23.8421 54.0171 23.3385 54.4046 22.8789C54.7899 22.4157 55.2784 22.0105 55.8702 21.6633C56.2782 21.424 56.7123 21.2335 57.1727 21.0918C57.6331 20.9502 58.0952 20.8915 58.559 20.9158C59.0207 20.9364 59.4626 21.0749 59.8847 21.3312C60.3105 21.5853 60.6884 21.9936 61.0183 22.5559L64.3435 28.2235L62.4249 29.3491L61.7424 28.1858L61.6762 28.2247C61.693 28.5311 61.6514 28.8519 61.5517 29.1871C61.4534 29.5164 61.2755 29.8407 61.0181 30.1597C60.7621 30.4729 60.4136 30.7589 59.9726 31.0177ZM59.6304 29.2471C60.031 29.0121 60.332 28.7293 60.5333 28.3987C60.7325 28.0645 60.8334 27.7187 60.8362 27.3613C60.8427 27.0018 60.7542 26.6658 60.571 26.3534L59.9855 25.3555C59.9532 25.4436 59.8746 25.5539 59.7498 25.6865C59.6287 25.8168 59.4859 25.9525 59.3216 26.0934C59.1572 26.2343 58.9925 26.3704 58.8275 26.5018C58.6625 26.6332 58.5192 26.7469 58.3977 26.8429C58.1237 27.058 57.896 27.2805 57.7147 27.5104C57.5334 27.7403 57.4233 27.9778 57.3843 28.223C57.3432 28.4645 57.3981 28.7139 57.5491 28.9712C57.7647 29.3388 58.0617 29.5375 58.44 29.5676C58.8183 29.5976 59.2151 29.4908 59.6304 29.2471Z" fill="black"/>
<path d="M67.5599 15.9136L69.7041 15.0438L73.6063 24.6632C73.8722 25.3187 73.9672 25.9101 73.8915 26.4375C73.8157 26.9649 73.5853 27.4286 73.2003 27.8285C72.8153 28.2284 72.2871 28.5645 71.6158 28.8368C71.5368 28.8688 71.463 28.8965 71.3942 28.9198C71.3271 28.947 71.2533 28.9747 71.1727 29.0028L70.4639 27.2554C70.5247 27.2353 70.5788 27.2157 70.6262 27.1965C70.6752 27.1812 70.7253 27.1631 70.7767 27.1423C71.1874 26.9757 71.4407 26.7557 71.5367 26.4822C71.6343 26.2127 71.6054 25.8864 71.45 25.5034L67.5599 15.9136ZM68.1023 14.1899C67.7587 14.3292 67.4189 14.336 67.0828 14.2103C66.749 14.0789 66.5172 13.8534 66.3874 13.5335C66.2561 13.2097 66.2652 12.8864 66.4148 12.5636C66.5667 12.2353 66.8144 12.0014 67.158 11.862C67.4976 11.7243 67.8343 11.7211 68.1681 11.8524C68.5042 11.9781 68.7379 12.2029 68.8693 12.5267C68.999 12.8466 68.988 13.1707 68.836 13.499C68.6865 13.8218 68.4419 14.0521 68.1023 14.1899Z" fill="black"/>
<path d="M84.5452 20.8164C83.589 21.0505 82.7146 21.0541 81.922 20.827C81.1324 20.5948 80.4617 20.158 79.9098 19.5166C79.3568 18.871 78.9582 18.0495 78.7139 17.052C78.4737 16.0711 78.4492 15.1645 78.6402 14.3324C78.8344 13.4951 79.2182 12.7869 79.7915 12.2078C80.3638 11.6245 81.1052 11.2214 82.0158 10.9984C82.6036 10.8545 83.1815 10.8139 83.7497 10.8766C84.321 10.9341 84.8555 11.1103 85.3533 11.4052C85.8552 11.6991 86.2965 12.1219 86.6773 12.6735C87.0571 13.2211 87.3494 13.9129 87.5541 14.749L87.7229 15.4381L79.9062 17.3523L79.5353 15.8374L85.1975 14.4508C85.088 14.0214 84.9011 13.6613 84.6368 13.3706C84.3716 13.0758 84.0517 12.8712 83.6771 12.7567C83.3066 12.6413 82.9061 12.6362 82.4756 12.7417C82.0162 12.8542 81.64 13.0647 81.3471 13.3734C81.0531 13.6779 80.8529 14.034 80.7466 14.4418C80.6434 14.8444 80.6419 15.2593 80.7421 15.6867L81.066 17.0091C81.2018 17.5637 81.4198 18.0149 81.7199 18.3626C82.019 18.7061 82.3765 18.9388 82.7925 19.0607C83.2074 19.1785 83.659 19.1776 84.1474 19.0579C84.4744 18.9779 84.7592 18.8599 85.0018 18.7039C85.2434 18.5439 85.4392 18.349 85.5891 18.1192C85.739 17.8894 85.8307 17.6279 85.8642 17.3345L88.0205 17.0566C88.0239 17.6436 87.89 18.1897 87.6188 18.6948C87.3508 19.1948 86.957 19.6291 86.4374 19.9976C85.9168 20.362 85.286 20.6349 84.5452 20.8164Z" fill="black"/>
<path d="M109.534 18.4469C108.551 18.3975 107.712 18.1505 107.017 17.7059C106.327 17.2573 105.81 16.6467 105.465 15.8742C105.12 15.0973 104.973 14.1961 105.025 13.1704C105.076 12.1617 105.312 11.2861 105.733 10.5435C106.159 9.79695 106.729 9.2283 107.444 8.83761C108.16 8.44265 108.986 8.26873 109.922 8.31583C110.526 8.34624 111.092 8.47282 111.618 8.69557C112.149 8.91428 112.611 9.23618 113.003 9.66127C113.4 10.0866 113.702 10.618 113.908 11.2556C114.116 11.889 114.197 12.6355 114.154 13.4953L114.119 14.2039L106.081 13.7995L106.16 12.2418L111.982 12.5347C112 12.0919 111.924 11.6934 111.754 11.3393C111.584 10.9808 111.336 10.6932 111.01 10.4762C110.688 10.2595 110.306 10.14 109.863 10.1177C109.391 10.094 108.97 10.188 108.601 10.3998C108.232 10.6074 107.938 10.8913 107.72 11.2515C107.506 11.6077 107.385 12.0048 107.359 12.443L107.291 13.8028C107.262 14.3731 107.342 14.8678 107.53 15.2868C107.718 15.7016 107.994 16.027 108.357 16.2629C108.721 16.4945 109.154 16.623 109.656 16.6482C109.993 16.6652 110.299 16.6336 110.576 16.5537C110.854 16.4695 111.097 16.3388 111.306 16.1616C111.516 15.9844 111.679 15.7601 111.795 15.4886L113.94 15.8397C113.775 16.4032 113.491 16.8881 113.086 17.2944C112.686 17.6967 112.185 18 111.581 18.2043C110.978 18.4044 110.296 18.4852 109.534 18.4469Z" fill="black"/>
<path d="M124.232 14.3569L122.927 19.9595L120.673 19.4343L122.902 9.8724L125.056 10.3744L124.677 11.9992L124.789 12.0253C125.134 11.5412 125.584 11.1976 126.139 10.9944C126.698 10.7921 127.334 10.7742 128.048 10.9406C128.708 11.0944 129.25 11.3695 129.674 11.7658C130.102 12.1631 130.388 12.6609 130.533 13.2591C130.682 13.8583 130.666 14.5393 130.484 15.3019L129.065 21.3902L126.811 20.8649L128.149 15.1253C128.298 14.4862 128.248 13.9474 128.001 13.509C127.757 13.0715 127.345 12.785 126.764 12.6496C126.369 12.5577 125.998 12.5631 125.651 12.6659C125.308 12.7654 125.012 12.9567 124.762 13.2398C124.516 13.5238 124.34 13.8962 124.232 14.3569Z" fill="black"/>
<path d="M146.083 28.2842L143.907 26.9911L154.556 18.0916L157.073 19.5871L154.353 33.1986L152.177 31.9055L154.487 21.1734L154.399 21.1212L146.083 28.2842ZM148.776 23.9141L154.711 27.4407L153.738 29.0783L147.803 25.5517L148.776 23.9141Z" fill="black"/>
<path d="M170.6 37.287L168.87 36.0586C168.967 35.8597 169.022 35.6406 169.035 35.4013C169.051 35.1649 169.005 34.9217 168.897 34.6715C168.788 34.4214 168.6 34.1775 168.332 33.9398C167.972 33.6201 167.6 33.4294 167.216 33.3677C166.835 33.3088 166.536 33.4051 166.319 33.6565C166.126 33.8672 166.05 34.1101 166.09 34.3855C166.134 34.6636 166.304 35.0112 166.601 35.4282L167.615 36.8078C168.177 37.5744 168.482 38.2701 168.532 38.895C168.584 39.5228 168.378 40.101 167.915 40.6296C167.501 41.0888 167.004 41.3765 166.422 41.4925C165.846 41.6082 165.235 41.5555 164.588 41.3344C163.941 41.1132 163.311 40.731 162.7 40.1878C161.801 39.3899 161.245 38.5597 161.03 37.697C160.819 36.8312 160.961 36.0138 161.455 35.2449L163.287 36.5805C163.069 36.9798 163.009 37.3742 163.108 37.7638C163.207 38.1534 163.455 38.525 163.853 38.8786C164.265 39.2436 164.669 39.452 165.068 39.5038C165.47 39.5584 165.781 39.4614 166.001 39.2129C166.188 39.0026 166.261 38.7567 166.22 38.4754C166.183 38.1969 166.027 37.8711 165.755 37.4979L164.736 36.1231C164.162 35.3513 163.86 34.6417 163.83 33.9945C163.804 33.344 164.03 32.7526 164.508 32.22C164.907 31.7647 165.378 31.4817 165.92 31.371C166.469 31.2599 167.047 31.3116 167.655 31.526C168.268 31.7401 168.868 32.1075 169.454 32.628C170.315 33.3919 170.829 34.1764 170.998 34.9814C171.17 35.7892 171.037 36.5578 170.6 37.287Z" fill="black"/>
<path d="M181.167 45.1869L179.791 46.3316L176.181 41.9927L177.557 40.848L181.167 45.1869ZM180.257 40.4148L181.737 42.1936L174.651 48.0887C174.412 48.2876 174.258 48.4763 174.19 48.6547C174.129 48.8336 174.125 49.0027 174.18 49.1621C174.235 49.3214 174.324 49.4748 174.447 49.6222C174.539 49.7336 174.632 49.8284 174.725 49.9065C174.82 49.9878 174.895 50.0476 174.949 50.0859L173.808 51.5426C173.696 51.4748 173.547 51.3688 173.36 51.2246C173.176 51.0837 172.976 50.8899 172.76 50.6431C172.376 50.2085 172.109 49.7513 171.96 49.2716C171.813 48.7892 171.81 48.3123 171.95 47.841C172.093 47.373 172.402 46.9444 172.876 46.5552L180.257 40.4148Z" fill="black"/>
<path d="M184.349 60.1176L189.235 57.2046L190.42 59.1922L181.987 64.2195L180.838 62.2923L182.337 61.3988L182.284 61.3109C181.699 61.402 181.126 61.3193 180.566 61.0626C180.009 60.8096 179.541 60.3665 179.164 59.7333C178.834 59.1805 178.665 58.6188 178.658 58.048C178.656 57.4787 178.82 56.9343 179.15 56.4149C179.484 55.8933 179.988 55.4318 180.661 55.0303L186.031 51.8294L187.216 53.817L182.154 56.8346C181.619 57.1532 181.282 57.5527 181.142 58.0332C181.001 58.5137 181.073 58.9918 181.357 59.4677C181.531 59.7605 181.772 60.0016 182.078 60.1911C182.385 60.3805 182.731 60.4791 183.118 60.4867C183.51 60.4959 183.92 60.3728 184.349 60.1176Z" fill="black"/>
<path d="M184.974 70.5675L194.108 66.966L194.931 69.0532L193.409 69.6535L193.446 69.7486C194.039 69.7072 194.558 69.8324 195.003 70.1243C195.453 70.4185 195.781 70.8272 195.988 71.3505C196.035 71.4694 196.081 71.6046 196.127 71.756C196.179 71.9097 196.214 72.0401 196.233 72.147L194.253 72.9278C194.249 72.8241 194.219 72.6685 194.165 72.4609C194.116 72.2557 194.056 72.0619 193.984 71.8795C193.829 71.4871 193.605 71.1679 193.311 70.9219C193.022 70.6783 192.694 70.526 192.327 70.4648C191.959 70.4036 191.581 70.4497 191.192 70.6028L185.823 72.7201L184.974 70.5675Z" fill="black"/>
<path d="M189.103 82.5332L198.623 80.1315L199.189 82.3751L189.669 84.7768L189.103 82.5332ZM200.258 80.9187C200.169 80.5633 200.209 80.2278 200.38 79.9123C200.555 79.5956 200.81 79.3951 201.145 79.3106C201.484 79.2252 201.803 79.2808 202.103 79.4776C202.408 79.6733 202.605 79.9488 202.694 80.3042C202.785 80.6636 202.742 80.9996 202.566 81.3121C202.395 81.6277 202.14 81.8283 201.802 81.9137C201.467 81.9982 201.147 81.9425 200.843 81.7468C200.544 81.5542 200.349 81.2781 200.258 80.9187Z" fill="black"/>
<path d="M191.265 94.7663C191.202 94.1474 191.255 93.5786 191.425 93.0601C191.599 92.5454 191.89 92.1216 192.297 91.7886C192.705 91.4599 193.228 91.2629 193.869 91.1974C194.42 91.141 194.886 91.1962 195.267 91.3628C195.648 91.5294 195.965 91.7776 196.217 92.1074C196.469 92.4371 196.673 92.8168 196.828 93.2464C196.988 93.6798 197.118 94.1313 197.217 94.6009C197.335 95.1672 197.436 95.6259 197.519 95.9773C197.606 96.3282 197.709 96.579 197.827 96.7296C197.95 96.8841 198.121 96.9501 198.342 96.9276L198.38 96.9237C198.859 96.8747 199.216 96.6947 199.449 96.3838C199.683 96.0729 199.773 95.6504 199.718 95.1162C199.66 94.5524 199.492 94.1177 199.212 93.8122C198.933 93.511 198.62 93.3202 198.273 93.24L198.359 91.0595C198.969 91.1684 199.494 91.3974 199.932 91.7467C200.375 92.0955 200.725 92.5416 200.982 93.0851C201.243 93.6281 201.408 94.2409 201.478 94.9234C201.526 95.3939 201.519 95.868 201.457 96.3456C201.394 96.8232 201.255 97.2679 201.04 97.6797C200.83 98.091 200.52 98.4354 200.112 98.7128C199.703 98.9944 199.175 99.1684 198.526 99.2347L191.99 99.9032L191.763 97.6903L193.105 97.5531L193.097 97.4768C192.812 97.3646 192.537 97.1935 192.274 96.9635C192.015 96.7372 191.794 96.4406 191.611 96.0739C191.432 95.7109 191.317 95.275 191.265 94.7663ZM193.018 95.1911C193.065 95.6531 193.197 96.0444 193.414 96.3649C193.635 96.685 193.908 96.9206 194.232 97.0716C194.556 97.2269 194.898 97.2862 195.258 97.2493L196.409 97.1316C196.343 97.0656 196.275 96.9483 196.206 96.7797C196.138 96.6153 196.074 96.4291 196.014 96.2211C195.955 96.013 195.899 95.8066 195.848 95.6019C195.797 95.3973 195.753 95.2197 195.717 95.0692C195.635 94.7306 195.527 94.4311 195.393 94.1706C195.26 93.9101 195.089 93.7112 194.883 93.5739C194.68 93.4361 194.43 93.3824 194.134 93.4128C193.71 93.4561 193.405 93.6436 193.221 93.9751C193.036 94.3067 192.969 94.712 193.018 95.1911Z" fill="black"/>
<path d="M198.768 115.706L198.688 113.586C198.905 113.542 199.112 113.452 199.31 113.316C199.507 113.185 199.672 113 199.804 112.762C199.937 112.524 200.016 112.226 200.041 111.869C200.075 111.389 200 110.978 199.815 110.635C199.63 110.297 199.371 110.119 199.039 110.099C198.755 110.075 198.516 110.162 198.322 110.362C198.128 110.566 197.956 110.913 197.806 111.402L197.33 113.047C197.064 113.959 196.698 114.625 196.232 115.045C195.766 115.469 195.182 115.658 194.481 115.612C193.865 115.564 193.334 115.344 192.887 114.954C192.445 114.568 192.114 114.051 191.896 113.403C191.677 112.755 191.597 112.023 191.655 111.207C191.74 110.008 192.06 109.061 192.614 108.366C193.172 107.671 193.906 107.285 194.817 107.209L194.874 109.475C194.424 109.546 194.075 109.739 193.826 110.054C193.577 110.37 193.434 110.793 193.396 111.324C193.357 111.873 193.438 112.321 193.64 112.668C193.841 113.02 194.108 113.208 194.439 113.232C194.72 113.252 194.959 113.16 195.157 112.956C195.355 112.757 195.519 112.435 195.649 111.991L196.119 110.346C196.381 109.421 196.76 108.749 197.256 108.332C197.756 107.914 198.362 107.733 199.076 107.789C199.68 107.827 200.191 108.028 200.61 108.391C201.032 108.759 201.343 109.249 201.543 109.861C201.747 110.478 201.821 111.178 201.765 111.96C201.683 113.108 201.374 113.993 200.838 114.617C200.302 115.246 199.612 115.609 198.768 115.706Z" fill="black"/>
<defs>
<pattern id="pattern0" patternContentUnits="objectBoundingBox" width="1" height="1">
<use xlink:href="#image0_0_1" transform="translate(-0.125337) scale(0.00269542)"/>
</pattern>
<image id="image0_0_1" width="464" height="371" xlink:href="/assets/airplane.jpg"/>
</defs>
</svg>
