<?xml version="1.0" standalone="no"?>
<!DOCTYPE svg PUBLIC "-//W3C//DTD SVG 20010904//EN"
 "http://www.w3.org/TR/2001/REC-SVG-20010904/DTD/svg10.dtd">
<svg version="1.0" xmlns="http://www.w3.org/2000/svg"
 width="300.000000pt" height="218.000000pt" viewBox="0 0 300.000000 218.000000"
 preserveAspectRatio="xMidYMid meet">
<metadata>
Created by potrace 1.10, written by Peter Selinger 2001-2011
</metadata>
<g transform="translate(0.000000,218.000000) scale(0.100000,-0.100000)"
fill="#000000" stroke="none">
<path d="M300 1511 c0 -18 52 -176 62 -188 17 -22 621 -203 674 -203 22 0 25
-3 20 -22 -3 -13 -6 -58 -6 -100 l0 -76 -32 9 c-77 20 -455 99 -479 99 -15 0
-32 -6 -38 -14 -17 -20 -8 -24 284 -131 238 -87 250 -92 253 -118 2 -15 -6
-42 -17 -61 -28 -44 -27 -66 10 -172 53 -155 40 -245 -44 -308 -68 -50 -122
-55 -288 -30 -188 29 -335 8 -426 -62 -32 -24 -93 -107 -93 -126 0 -20 17 -4
34 33 37 76 127 129 253 150 60 10 91 9 191 -5 209 -30 290 -21 355 42 74 70
85 155 37 297 -35 104 -37 139 -10 180 27 41 26 81 -3 100 -13 8 -97 41 -188
74 -325 117 -341 123 -330 134 9 9 114 -11 462 -90 l67 -15 6 -48 c4 -27 11
-52 17 -55 7 -5 8 44 3 148 -6 133 -5 159 10 187 11 23 13 37 6 44 -12 12 -13
145 -2 163 4 6 20 16 35 22 26 10 27 9 43 -47 39 -143 75 -249 89 -269 10 -14
27 -23 41 -23 25 0 24 -2 -25 -61 -48 -57 -60 -79 -45 -79 4 0 44 25 90 56 86
57 105 84 58 84 -23 0 -18 6 36 43 34 23 83 54 109 68 25 14 98 55 161 91 175
101 242 116 290 68 15 -15 20 -34 20 -71 0 -47 -3 -53 -51 -100 -28 -27 -90
-75 -137 -107 -51 -33 -97 -73 -112 -95 -23 -34 -43 -46 -159 -95 l-133 -56
-44 24 c-25 12 -47 21 -50 17 -8 -7 47 -47 147 -105 96 -57 118 -77 101 -94
-12 -12 -37 -4 -237 71 -108 41 -132 53 -140 75 -11 27 -28 26 -18 0 7 -18 -8
-18 -33 0 -18 14 -18 15 9 25 16 6 32 9 37 6 11 -7 60 15 60 27 0 4 -6 8 -13
8 -14 0 -117 -36 -124 -44 -9 -9 8 -26 40 -41 l32 -15 -47 5 c-28 3 -48 1 -48
-5 0 -6 26 -10 58 -10 46 0 91 -12 220 -60 167 -62 202 -69 221 -46 18 21 -21
61 -107 108 -74 41 -76 42 -47 49 17 3 83 30 149 58 111 48 120 50 157 40 30
-9 38 -17 36 -33 -1 -14 3 -20 13 -18 61 14 80 14 80 -1 0 -22 30 -37 55 -27
21 8 61 -11 48 -23 -11 -12 -24 -7 -17 6 5 9 4 9 -6 0 -20 -18 -4 -28 28 -17
34 12 140 -22 122 -40 -5 -5 -10 -16 -10 -23 0 -16 42 -17 57 -2 8 8 57 -10
185 -69 95 -44 196 -87 223 -97 l50 -17 62 66 c62 65 77 96 49 96 -16 0 -76
-68 -76 -85 0 -5 16 8 36 30 19 22 31 31 25 20 -12 -26 -48 -58 -68 -61 -8 -2
-59 21 -112 50 -53 29 -178 97 -278 150 -160 85 -183 101 -183 122 0 47 -67
83 -98 52 -8 -8 -22 -3 -54 24 -24 19 -50 37 -58 40 -11 3 -6 9 15 20 17 9 58
42 92 75 47 44 63 67 68 95 16 84 -25 138 -102 138 -55 0 -122 -29 -300 -132
-107 -62 -115 -65 -182 -66 -46 -1 -71 2 -71 10 0 7 14 9 40 5 45 -6 49 -3 19
14 -16 8 -31 7 -63 -5 -22 -9 -54 -15 -71 -13 -32 2 -35 -5 -21 -53 5 -18 4
-21 -3 -10 -5 8 -26 77 -47 154 -22 80 -44 140 -52 143 -8 3 -29 -1 -46 -10
-37 -17 -46 -44 -46 -129 0 -42 -2 -49 -17 -44 -24 8 -393 99 -510 126 l-93
22 -50 84 c-36 59 -57 84 -71 84 -10 0 -19 -4 -19 -9z m79 -88 c56 -93 22 -79
406 -171 273 -66 280 -69 277 -92 -1 -13 -4 -25 -6 -27 -7 -7 -238 56 -521
142 -172 52 -159 43 -189 132 -25 76 -33 113 -20 100 4 -4 28 -42 53 -84z
m961 -295 c0 -6 -11 -8 -25 -6 -14 3 -25 1 -25 -3 0 -12 27 -11 68 0 18 6 43
6 54 2 20 -7 18 -10 -25 -39 -68 -47 -108 -39 -122 25 -6 32 -6 32 34 31 23 0
41 -5 41 -10z m45 -116 c-14 -12 -107 -77 -125 -87 -8 -5 5 14 28 43 36 42 50
52 75 52 17 0 27 -4 22 -8z m489 -48 c31 -26 37 -37 28 -46 -19 -19 -14 -28
16 -28 43 0 101 -22 192 -72 286 -155 480 -258 491 -258 8 0 8 -4 -1 -15 -7
-8 -19 -15 -27 -15 -17 0 -96 33 -271 114 -214 99 -244 112 -286 126 -22 7
-53 21 -70 31 -17 10 -78 34 -136 53 -112 38 -120 47 -82 90 23 25 73 56 92
56 8 -1 33 -16 54 -36z m144 -42 c6 -9 12 -22 12 -30 0 -12 -3 -12 -22 0 -13
8 -34 21 -47 28 -19 9 -21 14 -10 21 18 11 50 2 67 -19z"/>
</g>
</svg>
