<?xml version="1.0" standalone="no"?>
<!DOCTYPE svg PUBLIC "-//W3C//DTD SVG 20010904//EN"
 "http://www.w3.org/TR/2001/REC-SVG-20010904/DTD/svg10.dtd">
<svg version="1.0" xmlns="http://www.w3.org/2000/svg"
 width="640.000000pt" height="1280.000000pt" viewBox="0 0 640.000000 1280.000000"
 preserveAspectRatio="xMidYMid meet">
<g transform="translate(0.000000,1280.000000) scale(0.100000,-0.100000)"
fill="#000000" stroke="none">
<path d="M1277 12783 c-15 -24 -29 -108 -37 -224 -5 -73 -12 -134 -15 -138
-14 -13 -43 22 -91 108 -64 116 -74 126 -74 80 0 -38 10 -56 87 -146 68 -81
79 -120 57 -215 -22 -97 -29 -207 -15 -221 19 -19 25 1 32 122 10 151 21 178
97 229 61 42 147 130 165 170 7 16 7 26 0 33 -16 16 -54 -13 -104 -77 -44 -58
-75 -84 -96 -84 -19 0 -16 29 11 138 34 136 38 173 24 201 -14 26 -33 37 -41
24z"/>
<path d="M545 12570 c-15 -24 7 -79 80 -199 41 -69 75 -131 75 -138 0 -25 -35
-12 -119 42 -53 35 -94 55 -113 55 -19 0 -28 -4 -26 -12 8 -24 113 -87 198
-119 104 -39 143 -76 165 -157 9 -31 21 -72 28 -91 14 -41 62 -80 78 -64 7 7
-3 34 -32 89 -79 147 -82 155 -81 219 0 33 12 107 26 165 28 113 31 145 16
155 -18 11 -39 -40 -50 -123 -12 -93 -24 -132 -40 -132 -5 0 -40 60 -76 134
-64 132 -114 200 -129 176z"/>
<path d="M1490 11374 c-6 -15 -15 -72 -21 -128 -16 -151 -23 -189 -36 -193 -7
-3 -28 27 -49 69 -44 88 -80 138 -100 138 -18 0 -18 0 10 -64 27 -61 71 -129
123 -190 41 -49 41 -72 3 -183 -33 -96 -38 -154 -15 -173 29 -24 42 11 76 193
26 143 41 169 162 267 85 69 102 97 68 108 -8 3 -51 -35 -105 -92 -87 -92
-116 -112 -116 -82 0 8 14 71 31 140 35 147 36 209 2 214 -17 3 -26 -4 -33
-24z"/>
<path d="M774 11175 c-7 -18 28 -94 100 -215 80 -134 67 -145 -62 -58 -48 32
-89 52 -116 56 -39 5 -40 4 -26 -13 25 -30 110 -79 199 -115 109 -43 141 -76
175 -177 29 -86 62 -147 75 -139 17 11 -10 104 -59 202 l-52 101 11 59 c6 32
22 99 36 149 29 105 30 115 10 115 -23 0 -34 -33 -44 -129 -10 -94 -24 -135
-44 -128 -7 2 -34 56 -62 120 -66 155 -122 223 -141 172z"/>
<path d="M1765 9757 c-13 -31 -25 -110 -43 -267 -5 -45 -11 -65 -21 -65 -7 0
-33 38 -57 84 -48 94 -94 150 -94 116 0 -11 31 -66 69 -122 39 -57 73 -119 77
-139 4 -23 -2 -83 -16 -163 -23 -126 -22 -186 3 -179 7 3 30 76 52 164 22 87
46 168 52 179 13 23 119 125 177 171 24 18 36 35 32 42 -17 27 -48 7 -131 -83
-48 -52 -92 -95 -97 -95 -14 0 -5 59 25 174 29 104 34 165 17 197 -15 28 -29
23 -45 -14z"/>
<path d="M1040 9548 c1 -31 27 -86 99 -203 33 -54 61 -105 61 -112 0 -23 -31
-14 -125 37 -51 28 -103 50 -115 50 -22 0 -23 -1 -5 -20 10 -11 57 -35 104
-53 65 -24 96 -43 132 -79 58 -58 123 -156 152 -231 15 -39 27 -57 37 -55 29
6 21 48 -29 143 -46 87 -51 102 -51 161 0 37 11 109 26 166 26 104 28 149 7
155 -25 8 -44 -46 -54 -149 -5 -56 -14 -107 -18 -111 -13 -13 -34 24 -82 143
-53 132 -84 180 -115 180 -18 0 -24 -5 -24 -22z"/>
<path d="M1930 8628 c0 -29 9 -91 20 -138 25 -110 25 -130 1 -130 -20 0 -92
80 -128 141 -10 16 -23 29 -30 29 -31 0 -8 -40 61 -105 41 -38 82 -82 91 -97
9 -15 25 -83 36 -153 20 -133 23 -145 41 -145 8 0 9 40 4 135 -8 145 -6 154
46 213 28 33 88 142 88 162 0 27 -39 -14 -75 -80 -41 -74 -58 -95 -73 -86 -5
3 -14 51 -22 106 -15 124 -32 192 -48 198 -8 2 -12 -12 -12 -50z"/>
<path d="M1332 8507 c-23 -28 -1 -67 91 -164 71 -73 88 -96 76 -103 -16 -10
-38 -7 -126 22 -64 20 -102 21 -106 3 -1 -5 30 -16 68 -23 218 -39 222 -41
305 -151 30 -40 68 -80 83 -88 28 -14 29 -14 22 9 -10 33 -50 83 -95 119 -61
50 -72 82 -74 230 0 70 -4 131 -8 135 -18 17 -23 -14 -20 -118 2 -85 0 -109
-10 -106 -7 3 -42 45 -78 95 -112 156 -114 158 -128 140z"/>
<path d="M2206 7363 c-13 -13 -5 -101 14 -174 12 -41 23 -91 27 -111 5 -34 3
-38 -15 -38 -12 0 -33 17 -53 43 -54 71 -92 107 -111 107 -30 0 -21 -14 57
-84 42 -37 84 -85 95 -106 11 -21 28 -87 39 -147 23 -125 28 -143 46 -143 24
0 25 33 4 148 -19 106 -19 133 -3 175 3 10 0 15 -12 14 -16 -2 -20 13 -30 108
-17 155 -37 228 -58 208z"/>
<path d="M2404 7207 c-34 -38 -43 -52 -59 -93 l-16 -39 26 30 c33 38 79 114
73 120 -3 3 -13 -5 -24 -18z"/>
<path d="M1585 7163 c6 -28 22 -48 139 -178 49 -54 56 -67 46 -80 -10 -12 -10
-15 0 -15 40 0 85 -38 136 -115 48 -73 92 -113 108 -98 9 9 -23 63 -76 128
-58 73 -73 111 -87 236 -6 53 -16 110 -22 125 -11 28 -11 28 -21 8 -7 -16 -4
-43 10 -100 19 -76 17 -114 -5 -121 -6 -2 -37 33 -68 79 -71 102 -123 158
-148 158 -16 0 -18 -5 -12 -27z"/>
<path d="M1540 6940 c0 -13 61 -27 145 -34 l70 -6 -79 25 c-83 26 -136 32
-136 15z"/>
<path d="M3180 6348 c0 -18 21 -82 46 -143 60 -147 60 -145 38 -145 -19 0 -50
18 -139 78 -52 34 -75 40 -75 20 0 -7 43 -38 96 -68 108 -62 173 -124 197
-190 9 -25 25 -67 34 -94 10 -27 23 -48 28 -47 18 3 8 66 -23 149 -18 45 -32
94 -32 110 0 17 16 73 35 126 38 105 44 156 20 156 -9 0 -20 -21 -30 -57 -31
-111 -50 -165 -60 -167 -5 0 -24 56 -41 125 -18 70 -40 138 -49 153 -24 37
-45 34 -45 -6z"/>
<path d="M2847 6093 c-15 -14 -5 -71 23 -138 17 -38 30 -73 30 -77 0 -22 -37
-1 -114 67 -87 75 -132 105 -161 105 -49 0 14 -66 150 -157 47 -31 84 -61 82
-67 -2 -7 -49 -13 -117 -16 -71 -3 -115 -9 -117 -16 -7 -20 39 -23 139 -9 118
16 142 11 206 -46 56 -49 145 -94 170 -84 15 6 13 10 -13 28 -58 43 -137 122
-160 162 -13 22 -42 87 -64 144 -44 113 -45 114 -54 104z"/>
<path d="M4500 5568 c0 -26 37 -129 97 -265 12 -29 -38 -10 -103 37 -63 46
-114 64 -114 41 0 -5 37 -32 83 -60 152 -92 185 -131 217 -259 11 -42 40 -82
60 -82 14 0 5 51 -27 160 -21 71 -25 98 -21 170 l5 85 -19 -42 c-32 -72 -46
-57 -86 89 -30 112 -53 158 -77 158 -10 0 -15 -10 -15 -32z"/>
<path d="M4161 5298 c0 -7 13 -44 30 -83 28 -66 29 -68 24 -27 -6 50 -33 122
-46 122 -5 0 -9 -6 -8 -12z"/>
<path d="M3930 5267 c0 -20 66 -79 155 -137 125 -83 123 -90 -19 -90 -83 0
-106 -3 -117 -16 -12 -15 -3 -16 108 -9 162 10 192 3 261 -54 80 -66 118 -91
136 -91 45 0 -1 53 -94 110 -76 47 -100 69 -121 115 -14 31 -19 35 -19 18 0
-37 -25 -27 -92 35 -121 113 -198 159 -198 119z"/>
<path d="M5327 4633 c-14 -13 -6 -124 14 -208 11 -48 18 -94 15 -102 -9 -22
-37 -2 -84 60 -52 69 -70 87 -88 87 -28 0 -12 -29 71 -126 59 -69 94 -120 115
-169 l29 -70 1 74 0 74 64 86 c78 104 105 156 89 172 -12 12 -56 -48 -101
-138 -24 -47 -41 -61 -51 -44 -4 6 -13 60 -20 119 -18 159 -32 207 -54 185z"/>
<path d="M4714 4446 c-11 -30 16 -71 101 -156 115 -114 112 -130 -17 -90 -77
24 -138 26 -138 5 0 -8 1 -15 3 -15 1 0 55 -9 120 -20 142 -24 188 -45 230
-108 43 -63 91 -112 111 -112 15 0 15 3 1 30 -8 16 -41 58 -72 92 -78 87 -83
104 -83 258 0 128 -7 153 -30 109 -9 -15 -8 -44 0 -109 18 -135 4 -139 -82
-24 -62 82 -97 124 -121 143 -14 11 -18 11 -23 -3z"/>
<path d="M4820 3227 c0 -24 16 -96 35 -158 19 -65 30 -118 25 -123 -5 -5 -29
11 -57 36 -108 99 -143 118 -143 80 0 -10 21 -34 48 -53 159 -118 192 -144
197 -158 4 -9 18 -54 31 -101 27 -91 49 -134 64 -125 19 12 9 59 -30 146 -22
49 -40 104 -40 122 0 18 22 78 50 137 49 103 60 140 40 140 -14 0 -35 -45 -59
-127 -22 -73 -37 -95 -51 -74 -4 7 -17 60 -29 119 -23 111 -47 173 -68 180 -9
2 -13 -10 -13 -41z"/>
<path d="M5447 3148 c-18 -39 -41 -120 -57 -200 -6 -32 -15 -58 -20 -58 -15 0
-36 40 -60 113 -21 65 -41 97 -61 97 -18 0 -9 -32 38 -133 61 -134 65 -177 24
-279 -31 -78 -39 -122 -22 -133 15 -8 27 21 46 113 26 119 53 156 174 236 56
36 101 68 101 71 0 16 -35 -2 -99 -50 -73 -55 -101 -67 -101 -42 0 7 18 62 41
122 22 60 43 124 46 142 5 28 3 33 -15 33 -13 0 -25 -12 -35 -32z"/>
<path d="M4966 2093 c-10 -24 11 -112 50 -211 19 -48 34 -88 34 -89 0 -13 -38
5 -87 41 -72 52 -96 66 -119 66 -16 0 -16 -1 0 -19 9 -10 54 -41 99 -69 121
-74 133 -89 157 -207 20 -100 45 -145 70 -130 16 10 5 53 -42 162 -45 107 -45
109 18 233 48 96 62 140 45 140 -12 0 -43 -63 -75 -152 -32 -88 -57 -58 -82
95 -18 114 -52 183 -68 140z"/>
<path d="M5602 2008 c-18 -23 -33 -69 -56 -178 -16 -74 -27 -105 -37 -105 -9
0 -26 35 -47 95 -34 98 -52 127 -71 115 -15 -8 -9 -25 44 -145 61 -137 62
-149 20 -264 -37 -103 -42 -131 -23 -142 18 -11 36 24 53 105 25 122 34 148
60 180 17 19 21 31 13 33 -8 3 3 47 36 140 26 75 46 144 44 154 -4 22 -22 28
-36 12z"/>
<path d="M5682 1780 c-81 -54 -102 -82 -35 -46 57 32 124 85 107 86 -7 0 -39
-18 -72 -40z"/>
<path d="M5754 669 c-4 -6 -9 -73 -11 -148 -3 -75 -6 -142 -9 -149 -7 -23 -37
3 -84 74 -46 68 -83 103 -94 86 -6 -11 57 -105 115 -171 50 -56 59 -91 59
-231 1 -103 2 -113 15 -96 11 15 15 48 15 123 0 130 11 156 99 248 75 78 101
115 78 115 -16 0 -43 -29 -86 -92 -34 -51 -67 -76 -82 -61 -5 5 -3 44 6 93 22
123 19 220 -5 220 -5 0 -12 -5 -16 -11z"/>
<path d="M5106 578 c10 -34 37 -84 93 -178 31 -50 48 -87 42 -93 -5 -5 -40 5
-88 27 -87 39 -124 47 -130 29 -6 -16 26 -31 121 -57 133 -37 159 -55 211
-144 57 -98 88 -137 103 -128 23 14 11 55 -30 106 -24 29 -55 70 -70 92 l-27
41 6 148 c4 106 3 149 -5 149 -16 0 -23 -53 -20 -147 5 -126 -14 -125 -73 3
-50 110 -94 174 -120 174 -16 0 -19 -4 -13 -22z"/>
</g>
</svg>
